<?xml version="1.0" encoding="utf-8"?>
<!-- Generator: Adobe Illustrator 26.0.1, SVG Export Plug-In . SVG Version: 6.00 Build 0)  -->
<svg version="1.1" id="Layer_1" xmlns="http://www.w3.org/2000/svg" xmlns:xlink="http://www.w3.org/1999/xlink" x="0px" y="0px"
	 viewBox="0 0 124.1 39.8" style="enable-background:new 0 0 124.1 39.8;" xml:space="preserve">
<style type="text/css">
	.st0{fill:#DCEAFF;}
	.st1{fill:#03BEF7;}
	.st2{fill:#1D6FFF;}
</style>
<g id="Layer_2_00000112620262243253980060000008590225625358562454_">
	<g id="Layer_1-2">
		<path class="st0" d="M49.3,0h4.6v37.6h-4.6V0z"/>
		<path class="st0" d="M60.7,0h4.7v5.2h-4.7V0z M60.7,10.3h4.7v27.2h-4.7V10.3z"/>
		<path class="st0" d="M72.4,10.2h4.4v3.9c1.1-1.4,2.5-2.6,4.1-3.5c1.5-0.7,3.2-1.1,4.8-1c3.9,0,6.5,1.3,7.9,4.1
			c0.7,1.5,1.1,3.6,1.1,6.4v17.5H90V20.3c0-1.4-0.2-2.8-0.7-4.1c-0.8-1.7-2.3-2.5-4.4-2.5c-0.9,0-1.8,0.1-2.7,0.3
			c-1.3,0.4-2.5,1.2-3.3,2.2C78.2,17,77.7,18,77.4,19c-0.3,1.4-0.4,2.8-0.3,4.1v14.3h-4.6L72.4,10.2L72.4,10.2z"/>
		<path class="st0" d="M101.4,0h4.4v21.8l11.8-11.7h5.9L113,20.3l11.2,17.2h-5.9l-8.6-13.9l-3.8,3.7v10.3h-4.4L101.4,0L101.4,0z"/>
		<polygon class="st1" points="26.8,0.1 12.2,18.9 18,26.4 20.8,22.9 17.6,18.9 28.9,4.4 38.6,4.4 38.6,33.3 28.9,33.3 21.7,24 
			19,27.6 26.8,37.6 43,37.6 43,0.1 		"/>
		<polygon class="st2" points="25.4,11.3 22.6,14.9 25.8,18.9 14.5,33.3 4.3,33.3 4.3,4.4 14.5,4.4 21.7,13.6 24.4,10.1 16.6,0.1 
			0,0.1 0,37.6 16.6,37.6 31.2,18.9 		"/>
	</g>
</g>
</svg>
